<?xml version="1.0" encoding="UTF-8"?>
<svg data-bbox="0 0 112.708 132.29" viewBox="0 0 112.7 132.3" xmlns="http://www.w3.org/2000/svg" data-type="color">
    <g>
        <path d="M52.77 0s11.19 23 32.55 28c27.37 6.4 27.37 49.37 27.37 49.37S93.72 52.91 69.31 45.39C42.34 37.08 52.77 0 52.77 0Z" fill="#70509f" data-color="1"/>
        <path d="M16.21 27.54S42.15 50.79 66.15 55.3s52.1 33.09 45.61 55.68c0 0-9.09-23.82-65.07-31.98 0 0-34.96-16.14-30.48-51.47Z" fill="#56307e" data-color="2"/>
        <path d="M0 61.23s22.06 26.83 80.5 34.84c0 0 22.58 4.7 32.2 36.22 0 0-12.75-19.01-61.71-17.66C2.02 115.98 0 61.23 0 61.23Z" fill="#36234c" data-color="3"/>
    </g>
</svg>
